{"title":"A Good Woman.2004.SWESUB.DVDRip.XviD.-Zen_Bud","uid":5612440,"size":734021632,"categoryP":"video","categoryS":"movies","magnet":"?xt=urn:btih:e5d74c7902dfb82b7885c8b8e1d2c47a277438d3&amp;dn=A+Good+Woman.2004.SWESUB.DVDRip.XviD.-Zen_Bud&amp;tr=udp%3A%2F%2Ftracker.openbittorrent.com%3A80&amp;tr=udp%3A%2F%2Fopen.demonii.com%3A1337&amp;tr=udp%3A%2F%2Ftracker.coppersurfer.tk%3A6969&amp;tr=udp%3A%2F%2Fexodus.desync.com%3A6969","seeders":1,"leechers":0,"uploader":"Zen_Bud","files":-1,"time":1275933571,"description":"General\nComplete name                    : A Good Woman.avi\nFormat                           : AVI\nFile size                        : 700 MiB\nDuration                         : 1h 29mn\nOverall bit rate                 : 1 096 Kbps\nWriting application              : VirtualDubMod 1.5.4.1 (build 2178/release)\nWriting library                  : VirtualDubMod build 2178/release\n\nVideo\nID                               : 0\nFormat                           : MPEG-4 Visual\nCodec ID/Hint                    : XviD\nDuration                         : 1h 29mn\nBit rate                         : 969 Kbps\nWidth                            : 720 pixels\nHeight                           : 400 pixels\nDisplay aspect ratio             : 16:9\nStream size                      : 619 MiB (88%)\nWriting library                  : XviD 1.3.0.dev55\n\nAudio\nID                               : 1\nFormat                           : MPEG Audio\nCodec ID/Hint                    : MP3\nDuration                         : 1h 29mn\nBit rate                         : 114 Kbps\nNominal bit rate                 : 128 Kbps\nChannel(s)                       : 2 channels\nSampling rate                    : 48.0 KHz\nStream size                      : 73.0 MiB (10%)\nWriting library                  : LAME3.98r\nLanguage                         : English\n\n","torrent":{"xt":"urn:btih:e5d74c7902dfb82b7885c8b8e1d2c47a277438d3","amp;dn":"A+Good+Woman.2004.SWESUB.DVDRip.XviD.-Zen_Bud","amp;tr":["udp%3A%2F%2Ftracker.openbittorrent.com%3A80","udp%3A%2F%2Fopen.demonii.com%3A1337","udp%3A%2F%2Ftracker.coppersurfer.tk%3A6969","udp%3A%2F%2Fexodus.desync.com%3A6969"],"infoHash":"e5d74c7902dfb82b7885c8b8e1d2c47a277438d3","infoHashBuffer":{"type":"Buffer","data":[229,215,76,121,2,223,184,43,120,133,200,184,225,210,196,122,39,116,56,211]},"announce":[],"urlList":[]}}